<svg width="83" height="44" viewBox="0 0 83 44" fill="none" xmlns="http://www.w3.org/2000/svg">
<path d="M79.4954 27.7484H3.46191V28.3468H79.4954V27.7484Z" fill="white"/>
<mask id="mask0_11_168" style="mask-type:luminance" maskUnits="userSpaceOnUse" x="0" y="0" width="83" height="44">
<path d="M83 0.779846H0V43.2201H83V0.779846Z" fill="white"/>
</mask>
<g mask="url(#mask0_11_168)">
<path d="M7.26569 20.0553C3.29092 20.0553 0.0427246 16.8071 0.0427246 12.7469C0.0427246 8.68664 3.33366 5.43845 7.26569 5.43845C8.84705 5.43845 10.3857 5.8231 11.5396 6.72063V5.65214H14.9588V19.7562H11.5396V18.8586C10.3857 19.5425 8.93253 20.0553 7.26569 20.0553ZM3.3764 12.7469C3.3764 14.9266 5.2142 16.8071 7.35117 16.8071C9.6591 16.8071 11.5396 14.9266 11.5396 12.7469C11.5396 10.5672 9.6591 8.68664 7.35117 8.68664C5.2142 8.68664 3.3764 10.5672 3.3764 12.7469ZM23.5067 20.0553C19.4892 20.0553 16.1555 16.8071 16.1555 12.7469C16.1555 8.68664 19.4892 5.43845 23.5067 5.43845C25.088 5.43845 26.5412 5.8231 27.7379 6.72063V0.779846H31.1998V19.7562H27.7379V18.8586C26.5412 19.5425 25.0453 20.0553 23.5067 20.0553ZM19.4892 12.7469C19.4892 14.9266 21.3697 16.8071 23.6776 16.8071C25.8146 16.8071 27.7379 14.9266 27.7379 12.7469C27.7379 10.5672 25.8146 8.68664 23.6776 8.68664C21.3697 8.68664 19.4892 10.5672 19.4892 12.7469ZM36.4567 19.7562H32.9521V5.65214H36.4567V19.7562ZM32.9521 0.779846H36.4567V4.32722H32.9521V0.779846ZM49.4068 0.779846H52.7832V19.7562H49.4068V18.8586C48.2101 19.5852 46.7142 20.0553 45.1756 20.0553C41.1153 20.0553 37.9526 16.8071 37.9526 12.7469C37.9526 8.68664 41.1153 5.43845 45.1756 5.43845C46.7569 5.43845 48.1246 5.8231 49.4068 6.72063V0.779846ZM41.2008 12.7469C41.2008 14.9266 43.1241 16.8071 45.2611 16.8071C47.4835 16.8071 49.4068 14.9266 49.4068 12.7469C49.4068 10.5672 47.4835 8.68664 45.2611 8.68664C43.1241 8.68664 41.2008 10.5672 41.2008 12.7469ZM61.3311 20.0553C57.3991 20.0553 53.9799 16.8071 53.9799 12.7469C53.9799 8.68664 57.3991 5.43845 61.3311 5.43845C62.9124 5.43845 64.3656 5.8231 65.4768 6.72063V5.65214H68.9387V19.7562H65.4768V18.8586C64.3656 19.5425 62.8697 20.0553 61.3311 20.0553ZM57.3991 12.7469C57.3991 14.9266 59.3223 16.8071 61.502 16.8071C63.639 16.8071 65.4768 14.9266 65.4768 12.7469C65.4768 10.5672 63.639 8.68664 61.502 8.68664C59.3223 8.68664 57.3991 10.5672 57.3991 12.7469ZM76.6745 20.0553C80.1364 20.0553 83 18.6877 83 15.2258C83 13.2598 81.6323 11.9776 79.4099 11.3792C77.1447 10.7809 74.1957 10.8664 74.1957 9.41321C74.3666 8.43021 75.2214 8.21651 76.6745 8.21651C78.7688 8.21651 78.8543 9.32773 78.9397 10.097H82.4444C82.1879 7.31898 79.9655 5.43845 76.5036 5.43845C72.828 5.43845 70.6055 7.40446 70.6055 9.96883C70.6055 11.422 71.3321 12.7469 72.6143 13.4307C73.5546 13.8154 74.7513 14.1146 76.2044 14.4137C77.7858 14.4992 79.1962 14.7129 79.1962 15.8241C79.1962 16.508 78.4696 17.4055 76.8455 17.4055C74.4521 17.4055 73.982 16.1233 73.982 15.2258H70.3064C70.3918 18.0466 72.7853 20.0553 76.6745 20.0553Z" fill="white"/>
</g>
<mask id="mask1_11_168" style="mask-type:luminance" maskUnits="userSpaceOnUse" x="0" y="0" width="83" height="44">
<path d="M83 0.779846H0V43.2201H83V0.779846Z" fill="white"/>
</mask>
<g mask="url(#mask1_11_168)">
<path d="M21.8398 42.2799C21.1987 42.9637 20.4294 43.2629 19.4891 43.2629C18.5489 43.2629 17.7368 42.9637 17.0957 42.3654C16.2837 41.5106 16.2837 40.613 16.2837 38.647C16.2837 36.7665 16.2837 35.869 17.0957 35.0142C17.7368 34.4158 18.5916 34.1166 19.4891 34.1166C21.1987 34.1166 22.3954 35.1851 22.6519 36.7665H21.6261C21.3697 35.698 20.5576 34.8859 19.4464 34.8859C18.8053 34.8859 18.2497 35.1851 17.8651 35.5698C17.3094 36.1681 17.224 36.7665 17.224 38.647C17.224 40.613 17.3094 41.2114 17.8651 41.8097C18.2497 42.1944 18.8053 42.4936 19.4464 42.4936C20.0875 42.4936 20.7286 42.1944 21.156 41.7243C21.5406 41.2114 21.6261 40.7412 21.6261 40.0574V39.3736H19.4464V38.4761H22.6091V39.9719C22.6519 40.9977 22.4809 41.6815 21.8398 42.2799Z" fill="white"/>
</g>
<mask id="mask2_11_168" style="mask-type:luminance" maskUnits="userSpaceOnUse" x="0" y="0" width="83" height="44">
<path d="M83 0.779846H0V43.2201H83V0.779846Z" fill="white"/>
</mask>
<g mask="url(#mask2_11_168)">
<path d="M32.9521 43.2628L30.9434 39.2026H28.7637V43.2628H27.7379V34.0739H31.1998C32.8666 34.0739 33.9779 35.0569 33.9779 36.6382C33.9779 38.0059 33.1658 38.8179 31.9691 39.1171L34.1916 43.2628H32.9521ZM31.1143 34.9714H28.7637V38.3051H31.1143C32.2256 38.3051 32.9521 37.7067 32.9521 36.6382C32.9521 35.5697 32.2256 34.9714 31.1143 34.9714Z" fill="white"/>
</g>
<mask id="mask3_11_168" style="mask-type:luminance" maskUnits="userSpaceOnUse" x="0" y="0" width="83" height="44">
<path d="M83 0.779846H0V43.2201H83V0.779846Z" fill="white"/>
</mask>
<g mask="url(#mask3_11_168)">
<path d="M44.1498 42.3654C43.5088 42.9637 42.654 43.2629 41.8419 43.2629C40.8162 43.2629 40.0896 42.9637 39.4912 42.3654C38.6792 41.5106 38.6792 40.613 38.6792 38.647C38.6792 36.7665 38.6792 35.869 39.4912 35.0142C40.0896 34.4158 40.8162 34.1166 41.8419 34.1166C42.654 34.1166 43.5088 34.4158 44.1498 35.0142C44.9619 35.869 44.9619 36.7665 44.9619 38.647C44.9619 40.613 44.9619 41.4678 44.1498 42.3654ZM43.4233 35.5698C42.9531 35.1851 42.3975 34.8859 41.8419 34.8859C41.2008 34.8859 40.6452 35.1851 40.1751 35.5698C39.6622 36.1681 39.5767 36.7665 39.5767 38.647C39.5767 40.613 39.6622 41.2114 40.1751 41.8097C40.6452 42.1944 41.2008 42.4936 41.8419 42.4936C42.3975 42.4936 42.9531 42.1944 43.4233 41.8097C43.9789 41.2114 44.0644 40.613 44.0644 38.647C44.0644 36.7237 43.9789 36.1681 43.4233 35.5698Z" fill="white"/>
</g>
<mask id="mask4_11_168" style="mask-type:luminance" maskUnits="userSpaceOnUse" x="0" y="0" width="83" height="44">
<path d="M83 0.779846H0V43.2201H83V0.779846Z" fill="white"/>
</mask>
<g mask="url(#mask4_11_168)">
<path d="M53.1678 43.2629C51.3301 43.2629 50.0051 42.0662 50.0051 40.2284V34.1166H50.9881V40.1429C50.9881 41.5533 51.9284 42.4936 53.2106 42.4936C54.5782 42.4936 55.433 41.5106 55.433 40.1429V34.1166H56.4588V40.2284C56.3733 42.0662 55.0056 43.2629 53.1678 43.2629Z" fill="white"/>
</g>
<mask id="mask5_11_168" style="mask-type:luminance" maskUnits="userSpaceOnUse" x="0" y="0" width="83" height="44">
<path d="M83 0.779846H0V43.2201H83V0.779846Z" fill="white"/>
</mask>
<g mask="url(#mask5_11_168)">
<path d="M65.0922 39.5018H62.6133V43.2628H61.673V34.0739H65.0922C66.759 34.0739 67.9557 35.1423 67.9557 36.7237C67.9557 38.4333 66.759 39.5018 65.0922 39.5018ZM65.0067 34.9714H62.6133V38.6042H65.0067C66.1179 38.6042 66.93 38.0059 66.93 36.7237C66.93 35.5697 66.1179 34.9714 65.0067 34.9714Z" fill="white"/>
</g>
<mask id="mask6_11_168" style="mask-type:luminance" maskUnits="userSpaceOnUse" x="0" y="0" width="83" height="44">
<path d="M83 0.779846H0V43.2201H83V0.779846Z" fill="white"/>
</mask>
<g mask="url(#mask6_11_168)">
<path d="M81.5469 5.39572C80.7776 5.39572 80.1365 4.75463 80.1365 3.94258C80.1365 3.13053 80.7776 2.48944 81.5469 2.48944C82.3162 2.48944 82.9573 3.13053 82.9573 3.94258C83 4.75463 82.3589 5.39572 81.5469 5.39572ZM81.5469 2.70314C80.863 2.70314 80.3502 3.25875 80.3502 3.94258C80.3502 4.62641 80.863 5.13929 81.5469 5.13929C82.188 5.13929 82.7436 4.58367 82.7436 3.94258C82.7436 3.25875 82.188 2.70314 81.5469 2.70314Z" fill="white"/>
</g>
<mask id="mask7_11_168" style="mask-type:luminance" maskUnits="userSpaceOnUse" x="0" y="0" width="83" height="44">
<path d="M83 0.779846H0V43.2201H83V0.779846Z" fill="white"/>
</mask>
<g mask="url(#mask7_11_168)">
<path d="M81.8888 4.71184L81.5468 4.07075H81.2904V4.71184H81.1194V3.17322H81.6323C81.8888 3.17322 82.1452 3.34417 82.1452 3.64335C82.1452 3.85705 82.017 4.02801 81.8033 4.07075L82.1879 4.75458M81.5896 3.34417H81.2477V3.89979H81.5896C81.7605 3.89979 81.846 3.77157 81.846 3.60061C81.8888 3.47239 81.8033 3.34417 81.5896 3.34417Z" fill="white"/>
</g>
</svg>
