<svg width="301" height="357" viewBox="0 0 301 357" fill="none" xmlns="http://www.w3.org/2000/svg">
<g filter="url(#filter0_d_175_18)">
<path d="M10.0012 350H284.001C289.524 350 294.001 345.523 294.001 340L294 200.5C278.181 200.5 263.077 210.055 257.07 224.689L249.98 241.959C248.388 245.838 245.367 248.956 241.542 250.671C230.723 255.521 218.5 247.605 218.5 235.749V179.017C218.5 169.343 210.657 161.5 200.983 161.5C195.344 161.5 190.049 164.215 186.758 168.795L135.619 239.96C128.268 250.19 112.989 250.009 105.883 239.609C102.24 234.278 101.702 227.413 104.47 221.58L111.67 206.409C119.254 190.43 107.6 172 89.9122 172C71.219 172 59.6523 151.631 69.2295 135.577L85.8048 107.794C93.0235 95.6939 86.9746 80.0303 73.4969 75.9229L62.0265 72.4271C54.585 70.1592 51.1748 61.5692 55.0344 54.8148C57.6861 50.1744 56.9863 44.3451 53.3118 40.4641L12.8835 2.69289C11.0314 0.962508 8.49693 -0.209532 6.1573 0.765475C2.54234 2.27195 0.0012207 5.83922 0.0012207 10V340C0.0012207 345.523 4.47838 350 10.0012 350Z" fill="url(#paint0_linear_175_18)"/>
</g>
<defs>
<filter id="filter0_d_175_18" x="0.0012207" y="0.411865" width="300.1" height="355.688" filterUnits="userSpaceOnUse" color-interpolation-filters="sRGB">
<feFlood flood-opacity="0" result="BackgroundImageFix"/>
<feColorMatrix in="SourceAlpha" type="matrix" values="0 0 0 0 0 0 0 0 0 0 0 0 0 0 0 0 0 0 127 0" result="hardAlpha"/>
<feOffset dx="4" dy="4"/>
<feGaussianBlur stdDeviation="1.05"/>
<feComposite in2="hardAlpha" operator="out"/>
<feColorMatrix type="matrix" values="0 0 0 0 0 0 0 0 0 0 0 0 0 0 0 0 0 0 0.25 0"/>
<feBlend mode="normal" in2="BackgroundImageFix" result="effect1_dropShadow_175_18"/>
<feBlend mode="normal" in="SourceGraphic" in2="effect1_dropShadow_175_18" result="shape"/>
</filter>
<linearGradient id="paint0_linear_175_18" x1="294.001" y1="3.55816e-05" x2="0.00125146" y2="350" gradientUnits="userSpaceOnUse">
<stop offset="0.374"/>
<stop offset="1" stop-color="#FF4D00"/>
</linearGradient>
</defs>
</svg>
