<svg width="236" height="72" viewBox="0 0 236 72" fill="none" xmlns="http://www.w3.org/2000/svg">
<rect width="235.2" height="72" rx="10" fill="#D9D9D9"/>
<path d="M44.5347 35.5127V16H58.2493V19.8048H48.5487V23.5401H54.0822V27.3452H48.5487V31.6797H58.821V35.5127H44.5347ZM71.236 35.8472L66.3438 25.4635C66.3067 25.3799 66.2647 25.2779 66.2185 25.1568C66.1719 25.0362 66.1253 24.9109 66.0791 24.7807C66.0883 24.8922 66.0929 25.0175 66.0929 25.1568C66.1024 25.2871 66.107 25.3986 66.107 25.4914V35.5127H62.093V16H66.1349L70.8458 26.3834C70.9478 26.588 71.0363 26.7877 71.1104 26.9829C71.1849 27.1688 71.2544 27.3685 71.3197 27.582C71.3938 27.3685 71.4682 27.1639 71.5427 26.9687C71.6168 26.7644 71.6958 26.5693 71.7794 26.3834L76.616 16H80.3513V35.5127H76.351V25.4635C76.351 25.352 76.351 25.2313 76.351 25.1011C76.351 24.9617 76.3556 24.8502 76.3651 24.7666C76.3185 24.8781 76.2674 24.9945 76.2116 25.1152C76.1654 25.2359 76.1188 25.3428 76.0722 25.4356L71.236 35.8472ZM84.6328 35.5127V16H93.1347C94.7885 16 96.1079 16.3066 97.093 16.9199C98.0778 17.524 98.7839 18.2995 99.2115 19.2473C99.6388 20.1951 99.8527 21.1848 99.8527 22.2162C99.8527 22.9318 99.7271 23.6565 99.4762 24.3905C99.2253 25.1152 98.8305 25.7842 98.2917 26.3975C97.762 27.0016 97.0697 27.4892 96.2148 27.8608C95.3598 28.2327 94.3334 28.4183 93.1347 28.4183H88.6468V35.5127H84.6328ZM88.6468 24.6413H93.302C93.8874 24.6413 94.3563 24.5207 94.7095 24.279C95.0627 24.0373 95.3182 23.7306 95.4762 23.3591C95.634 22.978 95.713 22.5973 95.713 22.2162C95.713 21.863 95.6386 21.5006 95.49 21.129C95.3506 20.748 95.1043 20.4276 94.7515 20.1672C94.3983 19.9071 93.9152 19.7769 93.302 19.7769H88.6468V24.6413ZM102.545 35.5127V16H106.559V35.5127H102.545ZM110.848 35.5127V16H120.13C121.765 16 123.061 16.2879 124.018 16.8641C124.985 17.4308 125.672 18.188 126.081 19.1358C126.499 20.0744 126.709 21.092 126.709 22.1883C126.709 22.9222 126.569 23.6657 126.29 24.4183C126.021 25.171 125.612 25.8587 125.064 26.4811C124.516 27.0944 123.837 27.5495 123.029 27.847L126.764 35.5127H122.276L118.68 28.4461H114.862V35.5127H110.848ZM114.862 24.6692H120.186C120.78 24.6692 121.25 24.5531 121.593 24.3206C121.946 24.0884 122.193 23.7864 122.332 23.4148C122.481 23.0337 122.555 22.6297 122.555 22.2021C122.555 21.8118 122.485 21.4311 122.346 21.0592C122.216 20.6876 121.974 20.381 121.621 20.1393C121.277 19.8979 120.799 19.7769 120.186 19.7769H114.862V24.6692ZM130.311 35.5127V16H144.026V19.8048H134.325V23.5401H139.858V27.3452H134.325V31.6797H144.597V35.5127H130.311ZM155.056 35.5127V16H168.436V19.8048H159.07V23.5401H165.007V27.3452H159.07V35.5127H155.056ZM171.199 35.5127V16H175.213V35.5127H171.199ZM183.794 35.5127V19.8468H178.219V16H193.397V19.8468H187.808V35.5127H183.794Z" fill="black"/>
<path d="M64.0503 59.3825C63.2563 59.3825 62.5355 59.2491 61.8876 58.9823C61.2462 58.7092 60.6968 58.3345 60.2395 57.8582C59.7885 57.3818 59.4583 56.8324 59.2487 56.21L61.0397 55.5526C61.3128 56.1497 61.713 56.6355 62.2401 57.0103C62.7736 57.3786 63.3929 57.5628 64.0979 57.5628C64.8537 57.5628 65.4571 57.3882 65.908 57.0388C66.3653 56.6895 66.594 56.1782 66.594 55.505C66.594 55.0414 66.4574 54.6508 66.1843 54.3332C65.9176 54.0156 65.5619 53.7489 65.1173 53.5329C64.679 53.3106 64.2027 53.1074 63.6882 52.9232C63.2182 52.7517 62.7451 52.5643 62.2687 52.3611C61.7924 52.1515 61.3605 51.9006 60.973 51.6085C60.5856 51.3163 60.2712 50.9575 60.0299 50.5319C59.7949 50.1064 59.6774 49.5919 59.6774 48.9885C59.6774 48.3725 59.8425 47.8072 60.1728 47.2927C60.5094 46.7783 60.9921 46.3654 61.6209 46.0542C62.2497 45.743 63.0086 45.5874 63.8978 45.5874C64.6282 45.5874 65.2697 45.7017 65.8223 45.9304C66.3812 46.1527 66.8417 46.4607 67.2037 46.8545C67.5657 47.2419 67.8166 47.6833 67.9563 48.1787L66.2034 48.7599C66.0382 48.3788 65.7524 48.0549 65.3459 47.7881C64.9458 47.5214 64.4218 47.388 63.774 47.388C63.1134 47.388 62.5926 47.5309 62.2116 47.8167C61.8368 48.1025 61.6495 48.4963 61.6495 48.9981C61.6495 49.3664 61.7765 49.6777 62.0305 49.9317C62.2846 50.1794 62.618 50.3985 63.0309 50.5891C63.4501 50.7796 63.9042 50.9638 64.3932 51.1417C64.8823 51.3195 65.3713 51.5227 65.8604 51.7514C66.3494 51.9737 66.7972 52.2468 67.2037 52.5707C67.6165 52.8946 67.9468 53.2947 68.1945 53.7711C68.4422 54.2411 68.5661 54.8095 68.5661 55.4764C68.5661 56.3084 68.366 57.0166 67.9659 57.6009C67.5721 58.1789 67.0354 58.6203 66.3558 58.9252C65.6762 59.2301 64.9077 59.3825 64.0503 59.3825ZM71.5103 59.1538V45.8161H76.7882C77.887 45.8161 78.7539 46.0161 79.3891 46.4163C80.0306 46.81 80.4879 47.3181 80.761 47.9406C81.0341 48.563 81.1706 49.2077 81.1706 49.8746C81.1706 50.3446 81.0912 50.8177 80.9325 51.2941C80.7737 51.7641 80.5196 52.1991 80.1703 52.5993C79.821 52.9994 79.3668 53.3201 78.8079 53.5615C78.2554 53.8028 77.5821 53.9235 76.7882 53.9235H73.4347V59.1538H71.5103ZM73.4347 52.1229H76.9025C77.4742 52.1229 77.9283 52.0086 78.2649 51.7799C78.6079 51.5513 78.8524 51.2655 78.9985 50.9225C79.1446 50.5795 79.2176 50.2302 79.2176 49.8746C79.2176 49.557 79.1509 49.2235 79.0175 48.8742C78.8905 48.5185 78.6587 48.22 78.3221 47.9787C77.9854 47.7373 77.5123 47.6166 76.9025 47.6166H73.4347V52.1229ZM88.7686 59.3825C87.7143 59.3825 86.8219 59.1824 86.0915 58.7823C85.3611 58.3758 84.7736 57.8391 84.329 57.1722C83.8844 56.499 83.5605 55.7559 83.3573 54.9429C83.154 54.1299 83.0524 53.3106 83.0524 52.4849C83.0524 51.6593 83.154 50.8399 83.3573 50.027C83.5605 49.214 83.8844 48.4741 84.329 47.8072C84.7736 47.134 85.3611 46.5973 86.0915 46.1971C86.8219 45.7907 87.7143 45.5874 88.7686 45.5874C89.8229 45.5874 90.7153 45.7907 91.4457 46.1971C92.1761 46.5973 92.7636 47.134 93.2082 47.8072C93.6528 48.4741 93.9735 49.214 94.1704 50.027C94.3736 50.8399 94.4753 51.6593 94.4753 52.4849C94.4753 53.3106 94.3736 54.1299 94.1704 54.9429C93.9735 55.7559 93.6528 56.499 93.2082 57.1722C92.7636 57.8391 92.1761 58.3758 91.4457 58.7823C90.7153 59.1824 89.8229 59.3825 88.7686 59.3825ZM88.7686 57.5533C89.4545 57.5533 90.0325 57.3977 90.5025 57.0865C90.9788 56.7753 91.3631 56.3688 91.6553 55.867C91.9474 55.3653 92.157 54.8191 92.284 54.2284C92.4111 53.6314 92.4746 53.0502 92.4746 52.4849C92.4746 51.8689 92.4111 51.2623 92.284 50.6653C92.157 50.0619 91.9474 49.5157 91.6553 49.0267C91.3695 48.5312 90.9884 48.1375 90.512 47.8453C90.042 47.5468 89.4609 47.3975 88.7686 47.3975C88.0763 47.3975 87.492 47.5531 87.0156 47.8644C86.5456 48.1756 86.1645 48.5852 85.8724 49.0933C85.5866 49.5951 85.377 50.1445 85.2436 50.7415C85.1166 51.3322 85.0531 51.9133 85.0531 52.4849C85.0531 53.0947 85.1166 53.7012 85.2436 54.3046C85.377 54.9016 85.5866 55.4478 85.8724 55.9432C86.1645 56.4323 86.5456 56.8229 87.0156 57.1151C87.492 57.4072 88.0763 57.5533 88.7686 57.5533ZM97.3746 59.1538V45.8161H102.9C103.986 45.8161 104.841 46.0034 105.463 46.3782C106.085 46.7529 106.527 47.2388 106.787 47.8358C107.054 48.4328 107.187 49.0616 107.187 49.7221C107.187 50.2366 107.086 50.751 106.883 51.2655C106.679 51.7799 106.359 52.2341 105.92 52.6279C105.488 53.0216 104.926 53.3043 104.234 53.4758L107.016 59.1538H104.844L102.176 53.6568H99.2991V59.1538H97.3746ZM99.2991 51.8562H102.938C103.51 51.8562 103.961 51.7545 104.291 51.5513C104.628 51.3417 104.866 51.0781 105.006 50.7606C105.152 50.4366 105.225 50.1 105.225 49.7507C105.225 49.4331 105.158 49.1124 105.025 48.7885C104.891 48.4582 104.66 48.1819 104.329 47.9596C103.999 47.731 103.535 47.6166 102.938 47.6166H99.2991V51.8562ZM112.756 59.1538V47.6643H109.021V45.8161H118.424V47.6643H114.68V59.1538H112.756ZM127.567 59.1538V47.6643H123.833V45.8161H133.236V47.6643H129.492V59.1538H127.567ZM140.348 59.3825C139.294 59.3825 138.402 59.1824 137.671 58.7823C136.941 58.3758 136.353 57.8391 135.909 57.1722C135.464 56.499 135.14 55.7559 134.937 54.9429C134.734 54.1299 134.632 53.3106 134.632 52.4849C134.632 51.6593 134.734 50.8399 134.937 50.027C135.14 49.214 135.464 48.4741 135.909 47.8072C136.353 47.134 136.941 46.5973 137.671 46.1971C138.402 45.7907 139.294 45.5874 140.348 45.5874C141.403 45.5874 142.295 45.7907 143.026 46.1971C143.756 46.5973 144.343 47.134 144.788 47.8072C145.233 48.4741 145.553 49.214 145.75 50.027C145.953 50.8399 146.055 51.6593 146.055 52.4849C146.055 53.3106 145.953 54.1299 145.75 54.9429C145.553 55.7559 145.233 56.499 144.788 57.1722C144.343 57.8391 143.756 58.3758 143.026 58.7823C142.295 59.1824 141.403 59.3825 140.348 59.3825ZM140.348 57.5533C141.034 57.5533 141.612 57.3977 142.082 57.0865C142.559 56.7753 142.943 56.3688 143.235 55.867C143.527 55.3653 143.737 54.8191 143.864 54.2284C143.991 53.6314 144.054 53.0502 144.054 52.4849C144.054 51.8689 143.991 51.2623 143.864 50.6653C143.737 50.0619 143.527 49.5157 143.235 49.0267C142.949 48.5312 142.568 48.1375 142.092 47.8453C141.622 47.5468 141.041 47.3975 140.348 47.3975C139.656 47.3975 139.072 47.5531 138.595 47.8644C138.125 48.1756 137.744 48.5852 137.452 49.0933C137.166 49.5951 136.957 50.1445 136.823 50.7415C136.696 51.3322 136.633 51.9133 136.633 52.4849C136.633 53.0947 136.696 53.7012 136.823 54.3046C136.957 54.9016 137.166 55.4478 137.452 55.9432C137.744 56.4323 138.125 56.8229 138.595 57.1151C139.072 57.4072 139.656 57.5533 140.348 57.5533ZM153.906 59.3825C152.807 59.3825 151.89 59.1792 151.153 58.7728C150.422 58.3599 149.873 57.7629 149.505 56.9817C149.136 56.1941 148.952 55.2382 148.952 54.1141V45.8161H150.876V54.1141C150.876 55.2255 151.115 56.0766 151.591 56.6673C152.067 57.258 152.839 57.5533 153.906 57.5533C154.586 57.5533 155.151 57.4295 155.602 57.1818C156.053 56.9341 156.389 56.5593 156.612 56.0576C156.834 55.5495 156.945 54.9016 156.945 54.1141V45.8161H158.87V54.1141C158.87 55.0032 158.755 55.7781 158.527 56.4386C158.304 57.0992 157.977 57.6486 157.545 58.0868C157.12 58.5251 156.599 58.8522 155.983 59.0681C155.367 59.2777 154.675 59.3825 153.906 59.3825ZM162.315 59.1538V45.8161H167.84C168.926 45.8161 169.781 46.0034 170.403 46.3782C171.025 46.7529 171.467 47.2388 171.727 47.8358C171.994 48.4328 172.127 49.0616 172.127 49.7221C172.127 50.2366 172.026 50.751 171.822 51.2655C171.619 51.7799 171.298 52.2341 170.86 52.6279C170.428 53.0216 169.866 53.3043 169.174 53.4758L171.956 59.1538H169.784L167.116 53.6568H164.239V59.1538H162.315ZM164.239 51.8562H167.878C168.45 51.8562 168.901 51.7545 169.231 51.5513C169.568 51.3417 169.806 51.0781 169.946 50.7606C170.092 50.4366 170.165 50.1 170.165 49.7507C170.165 49.4331 170.098 49.1124 169.965 48.7885C169.831 48.4582 169.599 48.1819 169.269 47.9596C168.939 47.731 168.475 47.6166 167.878 47.6166H164.239V51.8562Z" fill="#525252"/>
<path d="M194.675 40.9817C194.675 43.5801 196.781 45.6862 199.379 45.6862C201.978 45.6862 204.084 43.5801 204.084 40.9817C204.084 38.3833 201.978 36.2771 199.379 36.2771C196.781 36.2771 194.675 38.3833 194.675 40.9817ZM37.4205 41.8638H199.379V40.0995H37.4205V41.8638Z" fill="#FF4D00"/>
</svg>
