<svg width="1440" height="401" viewBox="0 0 1440 401" fill="none" xmlns="http://www.w3.org/2000/svg">
<path d="M395.623 0H0V308H1440V69.772H516.477C504.918 69.772 493.715 65.7667 484.776 58.4377L427.324 11.3343C418.385 4.00529 407.183 0 395.623 0Z" fill="#252525"/>
<path d="M395.578 46H0V355H1440V115.999H516.522C504.935 115.999 493.708 111.974 484.759 104.614L427.341 57.3848C418.392 50.0242 407.165 46 395.578 46Z" fill="#222222"/>
<path d="M395.623 93H0V401H1440V162.772H516.477C504.918 162.772 493.715 158.767 484.776 151.438L427.324 104.334C418.385 97.0053 407.183 93 395.623 93Z" fill="#1F1F1F"/>
</svg>
