<svg width="45" height="45" viewBox="0 0 45 45" fill="none" xmlns="http://www.w3.org/2000/svg">
<path d="M34.4527 8.28369C32.9466 8.28369 31.817 9.41329 31.817 10.9194C31.817 12.4256 32.9466 13.5552 34.4527 13.5552C35.9589 13.5552 37.0885 12.4256 37.0885 10.9194C37.0885 9.41329 35.9589 8.28369 34.4527 8.28369Z" fill="white"/>
<path d="M22.592 11.6724C16.3792 11.6724 11.4843 16.7556 11.4843 22.7801C11.4843 28.8046 16.5674 33.8878 22.592 33.8878C28.6165 33.8878 33.6997 28.8046 33.6997 22.7801C33.6997 16.7556 28.8048 11.6724 22.592 11.6724ZM22.592 29.9342C18.6384 29.9342 15.4378 26.7337 15.4378 22.7801C15.4378 18.8265 18.6384 15.626 22.592 15.626C26.5456 15.626 29.7461 18.8265 29.7461 22.7801C29.7461 26.7337 26.5456 29.9342 22.592 29.9342Z" fill="white"/>
<path d="M31.6288 0H13.7435C6.02453 0 0 6.02453 0 13.5552V31.4405C0 38.9712 6.02453 44.9957 13.5552 44.9957H31.4405C38.9712 44.9957 44.9957 38.9712 44.9957 31.4405V13.5552C45.184 6.02453 39.1594 0 31.6288 0ZM40.8538 31.6288C40.8538 36.712 36.712 41.0421 31.4405 41.0421H13.5552C8.47199 41.0421 4.14186 36.9002 4.14186 31.6288V13.7435C4.14186 8.66026 8.28373 4.33013 13.5552 4.33013H31.4405C36.5237 4.33013 40.8538 8.472 40.8538 13.7435V31.6288Z" fill="white"/>
</svg>
