<svg width="92" height="71" viewBox="0 0 92 71" fill="none" xmlns="http://www.w3.org/2000/svg">
<path d="M52.4816 8.19755C51.3266 5.31793 52.7238 2.0476 55.6022 0.893084C58.4807 -0.261436 61.7504 1.13704 62.9054 4.01666L79.9418 46.4919C81.0968 49.3715 79.6996 52.6418 76.8212 53.7964C73.9427 54.9509 70.673 53.5524 69.518 50.6728L52.4816 8.19755Z" fill="#A4A4A4"/>
<path d="M39.7719 62.6036C40.9269 65.4832 39.5298 68.7535 36.6513 69.9081C33.7729 71.0626 30.5031 69.6641 29.3481 66.7845L12.3117 24.3093C11.1568 21.4296 12.5539 18.1593 15.4324 17.0048C18.3108 15.8503 21.5806 17.2487 22.7356 20.1284L39.7719 62.6036Z" fill="#C5C5C5"/>
<path d="M67.4371 7.95662C66.2539 5.00676 67.6852 1.65667 70.6338 0.473993C73.5825 -0.708688 76.932 0.723896 78.1152 3.67376L91.173 36.2296C92.3561 39.1795 90.9249 42.5296 87.9762 43.7122C85.0276 44.8949 81.6781 43.4623 80.4949 40.5125L67.4371 7.95662Z" fill="#878787"/>
<path d="M24.8164 62.8445C25.9996 65.7944 24.5684 69.1445 21.6197 70.3272C18.6711 71.5098 15.3215 70.0773 14.1384 67.1274L1.08057 34.5715C-0.10259 31.6217 1.32864 28.2716 4.2773 27.0889C7.22597 25.9062 10.5755 27.3388 11.7586 30.2887L24.8164 62.8445Z" fill="#FF4D00"/>
<path d="M32.7736 35.5893C31.9003 33.4121 32.9567 30.9394 35.1331 30.0665L51.1502 23.6422C53.3266 22.7692 55.7989 23.8266 56.6721 26.0039C57.5454 28.1812 56.489 30.6539 54.3126 31.5268L38.2956 37.9511C36.1192 38.824 33.6469 37.7666 32.7736 35.5893Z" fill="#B4B4B4"/>
<path d="M36.3441 44.4913C35.4708 42.3141 36.5272 39.8414 38.7036 38.9684L45.8223 36.1132C47.9987 35.2403 50.471 36.2977 51.3443 38.4749C52.2175 40.6522 51.1612 43.1249 48.9848 43.9978L41.8661 46.8531C39.6897 47.726 37.2174 46.6686 36.3441 44.4913Z" fill="#B4B4B4"/>
</svg>
