<svg width="147" height="45" viewBox="0 0 147 45" fill="none" xmlns="http://www.w3.org/2000/svg">
<rect width="147" height="45" rx="10" fill="#D9D9D9"/>
<path d="M27.8342 22.1954V10H36.4058V12.378H30.343V14.7126H33.8014V17.0908H30.343V19.7998H36.7631V22.1954H27.8342ZM44.5225 22.4045L41.4649 15.9147C41.4417 15.8624 41.4155 15.7987 41.3866 15.723C41.3575 15.6476 41.3283 15.5693 41.2995 15.4879C41.3052 15.5576 41.3081 15.6359 41.3081 15.723C41.314 15.8044 41.3169 15.8741 41.3169 15.9321V22.1954H38.8081V10H41.3343L44.2786 16.4896C44.3424 16.6175 44.3977 16.7423 44.444 16.8643C44.4906 16.9805 44.534 17.1053 44.5748 17.2387C44.6211 17.1053 44.6677 16.9774 44.7142 16.8555C44.7605 16.7278 44.8099 16.6058 44.8622 16.4896L47.885 10H50.2196V22.1954H47.7194V15.9147C47.7194 15.845 47.7194 15.7696 47.7194 15.6882C47.7194 15.6011 47.7222 15.5314 47.7282 15.4791C47.6991 15.5488 47.6671 15.6216 47.6323 15.697C47.6034 15.7724 47.5743 15.8392 47.5452 15.8972L44.5225 22.4045ZM52.8955 22.1954V10H58.2092C59.2429 10 60.0674 10.1916 60.6831 10.5749C61.2986 10.9525 61.7399 11.4372 62.0072 12.0296C62.2743 12.6219 62.4079 13.2405 62.4079 13.8851C62.4079 14.3324 62.3294 14.7853 62.1726 15.244C62.0158 15.697 61.769 16.1151 61.4323 16.4984C61.1013 16.876 60.6686 17.1808 60.1342 17.413C59.5999 17.6454 58.9584 17.7614 58.2092 17.7614H55.4043V22.1954H52.8955ZM55.4043 15.4008H58.3137C58.6796 15.4008 58.9727 15.3254 59.1934 15.1744C59.4142 15.0233 59.5739 14.8316 59.6727 14.5994C59.7712 14.3612 59.8206 14.1233 59.8206 13.8851C59.8206 13.6644 59.7741 13.4379 59.6813 13.2057C59.5942 12.9675 59.4402 12.7672 59.2197 12.6045C58.9989 12.442 58.697 12.3606 58.3137 12.3606H55.4043V15.4008ZM64.0904 22.1954V10H66.5991V22.1954H64.0904ZM69.2797 22.1954V10H75.0813C76.1032 10 76.9134 10.1799 77.5115 10.5401C78.1156 10.8943 78.5452 11.3675 78.8008 11.9599C79.0621 12.5465 79.1929 13.1825 79.1929 13.8677C79.1929 14.3264 79.1058 14.7911 78.9315 15.2615C78.763 15.7318 78.5074 16.1617 78.165 16.5507C77.8223 16.934 77.3984 17.2185 76.8932 17.4044L79.2277 22.1954H76.4228L74.1753 17.7788H71.7885V22.1954H69.2797ZM71.7885 15.4183H75.1161C75.4877 15.4183 75.781 15.3457 75.9958 15.2004C76.2166 15.0553 76.3705 14.8665 76.4576 14.6343C76.5504 14.3961 76.597 14.1436 76.597 13.8763C76.597 13.6324 76.5533 13.3944 76.4662 13.162C76.3848 12.9298 76.234 12.7381 76.0132 12.5871C75.7984 12.4362 75.4994 12.3606 75.1161 12.3606H71.7885V15.4183ZM81.4445 22.1954V10H90.0162V12.378H83.9533V14.7126H87.4114V17.0908H83.9533V19.7998H90.3732V22.1954H81.4445ZM96.91 22.1954V10H105.273V12.378H99.4188V14.7126H103.13V17.0908H99.4188V22.1954H96.91ZM106.999 22.1954V10H109.508V22.1954H106.999ZM114.871 22.1954V12.4042H111.387V10H120.873V12.4042H117.38V22.1954H114.871Z" fill="black"/>
<path d="M40.0314 37.114C39.5352 37.114 39.0847 37.0306 38.6798 36.8639C38.2788 36.6932 37.9355 36.459 37.6496 36.1613C37.3678 35.8636 37.1614 35.5202 37.0304 35.1312L38.1498 34.7203C38.3205 35.0935 38.5706 35.3971 38.9001 35.6314C39.2335 35.8616 39.6205 35.9767 40.0612 35.9767C40.5336 35.9767 40.9107 35.8675 41.1925 35.6492C41.4783 35.4309 41.6212 35.1113 41.6212 34.6906C41.6212 34.4008 41.5359 34.1567 41.3652 33.9582C41.1985 33.7597 40.9762 33.593 40.6983 33.458C40.4244 33.3191 40.1267 33.192 39.8051 33.0769C39.5114 32.9697 39.2157 32.8527 38.9179 32.7256C38.6202 32.5946 38.3503 32.4378 38.1081 32.2552C37.866 32.0726 37.6695 31.8483 37.5187 31.5824C37.3718 31.3164 37.2983 30.9949 37.2983 30.6178C37.2983 30.2327 37.4016 29.8794 37.608 29.5579C37.8184 29.2364 38.12 28.9783 38.513 28.7838C38.906 28.5893 39.3804 28.4921 39.9361 28.4921C40.3926 28.4921 40.7936 28.5635 41.1389 28.7064C41.4882 28.8454 41.776 29.0379 42.0023 29.284C42.2286 29.5261 42.3854 29.802 42.4727 30.1117L41.3771 30.4749C41.2739 30.2367 41.0952 30.0342 40.8412 29.8675C40.5911 29.7008 40.2636 29.6174 39.8587 29.6174C39.4459 29.6174 39.1204 29.7068 38.8822 29.8854C38.648 30.064 38.5309 30.3101 38.5309 30.6237C38.5309 30.854 38.6103 31.0485 38.7691 31.2073C38.9279 31.3621 39.1363 31.499 39.3943 31.6181C39.6563 31.7372 39.9401 31.8523 40.2458 31.9635C40.5514 32.0746 40.8571 32.2016 41.1627 32.3445C41.4684 32.4835 41.7482 32.6542 42.0023 32.8566C42.2603 33.0591 42.4667 33.3092 42.6216 33.6069C42.7764 33.9006 42.8538 34.2559 42.8538 34.6727C42.8538 35.1927 42.7287 35.6353 42.4786 36.0005C42.2325 36.3618 41.8971 36.6376 41.4724 36.8282C41.0476 37.0187 40.5673 37.114 40.0314 37.114ZM44.6939 36.9711V28.635H47.9926C48.6794 28.635 49.2212 28.76 49.6182 29.0101C50.0191 29.2562 50.3049 29.5738 50.4756 29.9628C50.6463 30.3518 50.7316 30.7547 50.7316 31.1715C50.7316 31.4653 50.682 31.761 50.5828 32.0587C50.4835 32.3525 50.3247 32.6244 50.1064 32.8745C49.8881 33.1246 49.6043 33.325 49.2549 33.4759C48.9096 33.6267 48.4888 33.7021 47.9926 33.7021H45.8967V36.9711H44.6939ZM45.8967 32.5768H48.0641C48.4213 32.5768 48.7052 32.5053 48.9155 32.3624C49.1299 32.2195 49.2827 32.0409 49.374 31.8265C49.4653 31.6122 49.511 31.3938 49.511 31.1715C49.511 30.9731 49.4693 30.7647 49.3859 30.5463C49.3065 30.324 49.1617 30.1375 48.9513 29.9866C48.7409 29.8358 48.4452 29.7603 48.0641 29.7603H45.8967V32.5768ZM55.4804 37.114C54.8214 37.114 54.2637 36.989 53.8072 36.7389C53.3507 36.4848 52.9835 36.1494 52.7056 35.7326C52.4277 35.3118 52.2253 34.8474 52.0983 34.3393C51.9712 33.8311 51.9077 33.3191 51.9077 32.803C51.9077 32.287 51.9712 31.7749 52.0983 31.2668C52.2253 30.7587 52.4277 30.2962 52.7056 29.8794C52.9835 29.4587 53.3507 29.1232 53.8072 28.8732C54.2637 28.6191 54.8214 28.4921 55.4804 28.4921C56.1393 28.4921 56.697 28.6191 57.1535 28.8732C57.61 29.1232 57.9772 29.4587 58.2551 29.8794C58.533 30.2962 58.7334 30.7587 58.8565 31.2668C58.9835 31.7749 59.047 32.287 59.047 32.803C59.047 33.3191 58.9835 33.8311 58.8565 34.3393C58.7334 34.8474 58.533 35.3118 58.2551 35.7326C57.9772 36.1494 57.61 36.4848 57.1535 36.7389C56.697 36.989 56.1393 37.114 55.4804 37.114ZM55.4804 35.9708C55.9091 35.9708 56.2703 35.8735 56.564 35.679C56.8618 35.4845 57.1019 35.2304 57.2845 34.9168C57.4671 34.6032 57.5981 34.2619 57.6775 33.8927C57.7569 33.5195 57.7966 33.1563 57.7966 32.803C57.7966 32.418 57.7569 32.0389 57.6775 31.6657C57.5981 31.2886 57.4671 30.9473 57.2845 30.6416C57.1059 30.332 56.8677 30.0858 56.57 29.9032C56.2762 29.7167 55.913 29.6234 55.4804 29.6234C55.0477 29.6234 54.6825 29.7207 54.3847 29.9152C54.091 30.1097 53.8528 30.3657 53.6702 30.6833C53.4916 30.9969 53.3606 31.3402 53.2772 31.7134C53.1978 32.0826 53.1581 32.4458 53.1581 32.803C53.1581 33.1841 53.1978 33.5632 53.2772 33.9403C53.3606 34.3135 53.4916 34.6548 53.6702 34.9645C53.8528 35.2701 54.091 35.5143 54.3847 35.6969C54.6825 35.8795 55.0477 35.9708 55.4804 35.9708ZM60.8591 36.9711V28.635H64.3127C64.9915 28.635 65.5254 28.7521 65.9144 28.9863C66.3034 29.2205 66.5793 29.5242 66.742 29.8973C66.9088 30.2704 66.9921 30.6634 66.9921 31.0763C66.9921 31.3978 66.9286 31.7193 66.8016 32.0409C66.6746 32.3624 66.4741 32.6462 66.2002 32.8923C65.9303 33.1385 65.579 33.3151 65.1463 33.4223L66.885 36.9711H65.5274L63.8601 33.5354H62.0619V36.9711H60.8591ZM62.0619 32.41H64.3365C64.6937 32.41 64.9756 32.3465 65.182 32.2195C65.3924 32.0885 65.5413 31.9238 65.6286 31.7253C65.7199 31.5228 65.7655 31.3125 65.7655 31.0941C65.7655 30.8956 65.7239 30.6952 65.6405 30.4927C65.5571 30.2863 65.4122 30.1136 65.2058 29.9747C64.9994 29.8318 64.7096 29.7603 64.3365 29.7603H62.0619V32.41ZM70.4724 36.9711V29.7901H68.1382V28.635H74.0152V29.7901H71.6751V36.9711H70.4724ZM79.7296 36.9711V29.7901H77.3955V28.635H83.2725V29.7901H80.9324V36.9711H79.7296ZM87.7178 37.114C87.0588 37.114 86.5011 36.989 86.0446 36.7389C85.5881 36.4848 85.2209 36.1494 84.943 35.7326C84.6652 35.3118 84.4627 34.8474 84.3357 34.3393C84.2086 33.8311 84.1451 33.3191 84.1451 32.803C84.1451 32.287 84.2086 31.7749 84.3357 31.2668C84.4627 30.7587 84.6652 30.2962 84.943 29.8794C85.2209 29.4587 85.5881 29.1232 86.0446 28.8732C86.5011 28.6191 87.0588 28.4921 87.7178 28.4921C88.3767 28.4921 88.9344 28.6191 89.3909 28.8732C89.8474 29.1232 90.2146 29.4587 90.4925 29.8794C90.7704 30.2962 90.9708 30.7587 91.0939 31.2668C91.2209 31.7749 91.2844 32.287 91.2844 32.803C91.2844 33.3191 91.2209 33.8311 91.0939 34.3393C90.9708 34.8474 90.7704 35.3118 90.4925 35.7326C90.2146 36.1494 89.8474 36.4848 89.3909 36.7389C88.9344 36.989 88.3767 37.114 87.7178 37.114ZM87.7178 35.9708C88.1465 35.9708 88.5077 35.8735 88.8015 35.679C89.0992 35.4845 89.3393 35.2304 89.5219 34.9168C89.7045 34.6032 89.8355 34.2619 89.9149 33.8927C89.9943 33.5195 90.034 33.1563 90.034 32.803C90.034 32.418 89.9943 32.0389 89.9149 31.6657C89.8355 31.2886 89.7045 30.9473 89.5219 30.6416C89.3433 30.332 89.1051 30.0858 88.8074 29.9032C88.5137 29.7167 88.1504 29.6234 87.7178 29.6234C87.2851 29.6234 86.9199 29.7207 86.6222 29.9152C86.3284 30.1097 86.0902 30.3657 85.9076 30.6833C85.729 30.9969 85.598 31.3402 85.5146 31.7134C85.4353 32.0826 85.3956 32.4458 85.3956 32.803C85.3956 33.1841 85.4353 33.5632 85.5146 33.9403C85.598 34.3135 85.729 34.6548 85.9076 34.9645C86.0902 35.2701 86.3284 35.5143 86.6222 35.6969C86.9199 35.8795 87.2851 35.9708 87.7178 35.9708ZM96.1913 37.114C95.5045 37.114 94.9309 36.987 94.4705 36.7329C94.014 36.4749 93.6706 36.1018 93.4404 35.6135C93.2101 35.1213 93.095 34.5238 93.095 33.8212V28.635H94.2978V33.8212C94.2978 34.5159 94.4466 35.0478 94.7444 35.417C95.0421 35.7862 95.5244 35.9708 96.1913 35.9708C96.616 35.9708 96.9693 35.8934 97.2512 35.7385C97.533 35.5837 97.7434 35.3495 97.8823 35.0359C98.0213 34.7183 98.0907 34.3135 98.0907 33.8212V28.635H99.2935V33.8212C99.2935 34.377 99.222 34.8613 99.0791 35.2741C98.9402 35.6869 98.7358 36.0303 98.4658 36.3042C98.1999 36.5781 97.8744 36.7825 97.4893 36.9175C97.1043 37.0485 96.6716 37.114 96.1913 37.114ZM101.447 36.9711V28.635H104.9C105.579 28.635 106.113 28.7521 106.502 28.9863C106.891 29.2205 107.167 29.5242 107.329 29.8973C107.496 30.2704 107.58 30.6634 107.58 31.0763C107.58 31.3978 107.516 31.7193 107.389 32.0409C107.262 32.3624 107.062 32.6462 106.788 32.8923C106.518 33.1385 106.166 33.3151 105.734 33.4223L107.472 36.9711H106.115L104.448 33.5354H102.649V36.9711H101.447ZM102.649 32.41H104.924C105.281 32.41 105.563 32.3465 105.769 32.2195C105.98 32.0885 106.129 31.9238 106.216 31.7253C106.307 31.5228 106.353 31.3125 106.353 31.0941C106.353 30.8956 106.311 30.6952 106.228 30.4927C106.145 30.2863 106 30.1136 105.793 29.9747C105.587 29.8318 105.297 29.7603 104.924 29.7603H102.649V32.41Z" fill="#525252"/>
<path d="M121.672 25.6137C121.672 27.2377 122.988 28.554 124.612 28.554C126.236 28.554 127.553 27.2377 127.553 25.6137C127.553 23.9897 126.236 22.6733 124.612 22.6733C122.988 22.6733 121.672 23.9897 121.672 25.6137ZM23.3878 26.165H124.612V25.0624H23.3878V26.165Z" fill="#FF4D00"/>
</svg>
