<svg width="178" height="44" viewBox="0 0 178 44" fill="none" xmlns="http://www.w3.org/2000/svg">
<path d="M15.0666 2.63128H0V9.44391H4.43398V30.0837C4.43398 30.0837 4.43398 42.9837 18.0638 42.9837C18.0638 42.9837 23.8418 43.0919 27.2484 38.3375C27.2484 38.3375 30.1412 42.9837 35.6062 42.9837C35.6062 42.9837 40.7777 43.5054 44.2809 40.3034C44.2809 40.3034 51.5149 35.4523 51.4029 20.4823C51.4029 20.4823 51.1942 9.23934 48.5139 2.63104H36.1084V9.44391H39.8431C39.8431 9.44391 41.809 15.0171 41.809 22.1391C41.809 22.1391 42.0253 26.407 39.8431 30.9104C39.8431 30.9104 38.5106 34.116 35.6062 34.116C35.6062 34.116 33.034 34.0078 33.1304 30.9104V2.63128H18.0638V9.44391H22.5055V30.4044C22.5055 30.4044 22.5055 34.116 18.7939 34.116C18.7939 34.116 15.0666 34.1122 15.0666 30.4044V2.63128ZM60.8228 5.70177C60.8228 5.70177 67.0873 5.70177 67.0873 10.5528C67.0873 10.5528 67.1145 15.4039 60.8228 15.4039C60.8228 15.4039 54.5198 15.4039 54.5198 10.5528C54.5198 10.5528 54.4734 5.70177 60.8228 5.70177Z" fill="white"/>
<path d="M53.365 16.2573H65.6393V32.5173C65.6393 32.5173 65.6393 34.3752 67.3501 34.3752C67.3501 34.3752 69.4667 34.1204 70.7026 32.0963C70.7026 32.0963 72.5641 29.7249 72.5641 27.7669V8.1079C72.5641 8.1079 72.819 0.985895 82.3627 0.985895C82.3627 0.985895 91.8638 0.676994 91.8638 9.91154C91.8638 9.91154 92.389 14.2412 88.8746 20.4401C88.8746 20.4401 87.3257 23.3253 85.5644 25.9631C85.5644 25.9631 84.2783 27.9638 83.0386 29.7251C83.0386 29.7251 82.0578 30.8141 82.0578 32.2084C82.0578 32.2084 81.9497 34.5296 84.4329 34.5296C84.4329 34.5296 86.6036 34.4793 88.2991 32.6177C88.2991 32.6177 90.8366 30.2463 92.1729 26.4304C92.1729 26.4304 94.2893 21.8305 94.3898 16.2571H103.424C103.424 16.2571 103.47 17.1302 103.736 18.0648C103.736 18.0648 104.046 19.4552 105.857 21.9387C105.857 21.9387 108.383 25.5498 109.159 26.89C109.159 26.89 111.063 29.7249 111.063 33.2937C111.063 33.2937 111.013 36.8508 108.526 39.3265C108.526 39.3265 105.745 42.791 101.67 42.791C101.67 42.791 98.8312 42.791 96.3055 41.3891C96.3055 41.3891 93.2042 39.7359 91.8638 37.8782C91.8638 37.8782 91.721 37.6736 91.358 37.6736L90.8558 37.8936C90.8558 37.8936 89.0173 39.8441 87.0671 40.9217C87.0671 40.9217 84.4831 42.791 80.7213 42.791C80.7213 42.791 77.307 42.791 75.2483 40.8213C75.2483 40.8213 73.4408 39.3265 73.0779 37.5693L72.6956 37.2758L72.2514 37.5498C72.2514 37.5498 70.6523 39.4347 68.6362 40.8213C68.6362 40.8213 66.4696 42.791 62.6498 42.791C62.6498 42.791 59.193 42.8374 57.3817 40.9833C57.3817 40.9833 55.377 39.2222 55.377 36.5457V22.2437C55.377 22.2437 55.4737 20.8997 53.365 20.8997V16.2573ZM95.9425 30.192C95.529 31.2543 94.9576 32.4129 94.9576 32.4129L94.7566 33.0541C94.803 33.4093 94.9845 33.73 94.9845 33.73C95.448 34.487 96.124 34.8964 96.124 34.8964C96.823 35.4565 97.9855 35.4565 97.9855 35.4565C99.3913 35.4565 100.067 34.3517 100.067 34.3517C100.77 33.3901 100.77 32.3355 100.77 32.3355C100.77 31.6403 100.253 30.6865 100.253 30.6865C99.8587 29.86 99.0671 28.3653 99.0671 28.3653C98.5959 27.5929 98.1401 26.6119 98.1401 26.6119C97.9161 26.0364 97.7074 26.1174 97.7074 26.1174L97.3096 26.7121C96.5682 28.7746 95.9425 30.192 95.9425 30.192ZM82.1812 20.9923L82.5982 20.517C84.3596 17.9833 85.6728 13.2676 85.6728 13.2676C86.0822 11.9585 86.1283 10.1392 86.1283 10.1392C86.1283 8.97667 85.6726 7.84516 85.6726 7.84516C85.1165 6.71341 84.3055 6.73264 84.3055 6.73264C83.2588 6.73264 82.4708 8.13483 82.4708 8.13483C81.7449 9.32812 81.7449 11.4563 81.7449 11.4563V20.1733C81.7449 21.3899 82.1812 20.9923 82.1812 20.9923ZM111.735 29.2617C111.735 29.2617 111.936 22.8618 115.76 19.5634C115.76 19.5634 119.475 15.8403 125.411 15.8403C125.411 15.8403 131.344 15.8944 134.55 19.1966C134.55 19.1966 135.53 20.1235 136.048 20.8997C136.048 20.8997 136.411 21.3132 136.716 20.95C136.716 20.95 138.628 18.7331 139.86 17.9103C139.86 17.9103 142.39 15.7939 145.225 15.7939C145.225 15.7939 147.558 15.7359 148.84 16.9795C148.84 16.9795 150.396 18.2735 151.173 19.8723C151.173 19.8723 151.582 20.5406 152.196 19.9228C152.196 19.9228 153.486 18.5206 154.985 17.4973C154.985 17.4973 157.406 15.6355 160.824 15.6355C160.824 15.6355 163.864 15.7359 165.305 17.1804C165.305 17.1804 167.831 19.1966 167.831 21.9889V36.3373C167.831 36.3373 167.831 38.0868 169.384 38.133H170.936V42.5747H162.617C162.617 42.5747 157.619 42.5206 157.619 37.0553V26.7821C157.619 26.7821 157.619 24.6152 154.935 24.6152C154.935 24.6152 151.938 24.6731 151.938 27.1489V42.5747H141.726V26.7318C141.726 26.7318 141.668 25.2371 140.486 25.2371C140.486 25.2371 139.401 25.3916 138.779 26.1717C138.779 26.1717 138.273 26.6313 138.524 27.3535C138.524 27.3535 138.728 28.4352 138.728 29.6787C138.728 29.6787 138.779 35.5029 135.075 38.9133C135.075 38.9133 131.456 42.7872 125.462 42.7872C125.462 42.7872 119.529 42.7872 116.123 39.3809C116.123 39.3809 111.735 35.8238 111.735 29.2617ZM125.261 35.8582C125.261 35.8582 126.96 35.9356 127.578 34.6223C127.578 34.6223 128.297 33.2242 128.463 29.304V29.2614C128.297 25.3414 127.578 23.951 127.578 23.951C126.96 22.6337 125.261 22.7149 125.261 22.7149H125.211C125.211 22.7149 123.504 22.6339 122.882 23.951C122.882 23.951 122.163 25.3414 122.001 29.2614V29.304C122.163 33.2242 122.882 34.6223 122.882 34.6223C123.504 35.9356 125.211 35.8582 125.211 35.8582H125.261ZM175.424 38.083C176.038 38.083 176.559 38.2953 176.988 38.7318C177.425 39.1604 177.633 39.678 177.633 40.2883C177.633 40.9061 177.425 41.4278 176.988 41.8602C176.563 42.2888 176.042 42.5013 175.424 42.5013C174.814 42.5013 174.288 42.2888 173.868 41.8602C173.442 41.4275 173.234 40.9061 173.234 40.2881C173.234 39.678 173.442 39.1607 173.868 38.7318C174.3 38.2953 174.822 38.083 175.424 38.083ZM178 40.2883C178 39.5816 177.749 38.9751 177.255 38.4806C176.745 37.9825 176.146 37.7315 175.436 37.7315C174.729 37.7315 174.122 37.9825 173.632 38.4808C173.13 38.9828 172.875 39.5816 172.875 40.2883C172.875 40.9989 173.13 41.5975 173.624 42.0997C174.118 42.6018 174.725 42.8528 175.436 42.8528C176.146 42.8528 176.745 42.6018 177.255 42.0997C177.749 41.5975 178 40.9989 178 40.2883ZM176.119 39.7359L175.829 40.1609L175.35 40.2342H174.891V39.2222H175.32L175.934 39.3265L176.119 39.7359ZM174.404 38.8669V41.6826H174.891V40.578H175.285L175.845 40.6669L176.115 41.3078V41.5319L176.119 41.6285L176.127 41.6554L176.135 41.6826H176.594L176.582 41.6516L176.552 41.5011V41.084L176.393 40.6552L175.918 40.377L176.324 40.2458L176.594 39.6857C176.594 39.3342 176.444 39.0948 176.158 38.9751C175.995 38.9094 175.741 38.8669 175.381 38.8669H174.404Z" fill="white"/>
</svg>
