<svg width="500" height="200" viewBox="0 0 500 200" fill="none" xmlns="http://www.w3.org/2000/svg">
<path d="M381.579 49.9994H118.422C108.248 49.9994 100.001 56.2676 100.001 63.9999V135.999C100.001 143.731 108.248 149.999 118.422 149.999H381.579C391.753 149.999 400.001 143.731 400.001 135.999V63.9999C400.001 56.2676 391.753 49.9994 381.579 49.9994Z" fill="url(#paint0_linear_160_2)"/>
<path fill-rule="evenodd" clip-rule="evenodd" d="M129.356 70.0188H164.201C171.041 70.0188 176.589 75.5664 176.589 82.4066V117.252C176.589 124.092 171.041 129.639 164.201 129.639H129.356C122.516 129.639 116.968 124.092 116.968 117.252V82.4066C116.968 75.5664 122.516 70.0188 129.356 70.0188Z" fill="url(#paint1_linear_160_2)"/>
<path d="M144.295 99.7928C149.34 99.7928 153.429 95.7037 153.429 90.6596C153.429 85.6154 149.34 81.5264 144.295 81.5264C139.251 81.5264 135.162 85.6154 135.162 90.6596C135.162 95.7037 139.251 99.7928 144.295 99.7928Z" stroke="white" stroke-width="2.63546" stroke-miterlimit="22.9256"/>
<path d="M153.445 118.059H132.63C130.786 118.059 129.276 116.55 129.276 114.705V108.926C129.276 103.902 133.386 99.7925 138.41 99.7925H150.181C152.096 99.7925 153.878 100.39 155.35 101.407" stroke="white" stroke-width="2.63546" stroke-miterlimit="22.9256" stroke-linecap="round"/>
<path d="M150.98 111.482H164.28M157.63 118.132V104.832" stroke="white" stroke-width="2.63546" stroke-miterlimit="22.9256" stroke-linecap="round"/>
<path d="M194.248 74.7039H377.412C381.13 74.7039 384.171 77.4036 384.171 80.7035V118.955C384.171 122.254 381.13 124.954 377.412 124.954H194.248C190.531 124.954 187.489 122.254 187.489 118.955V80.7035C187.489 77.4036 190.531 74.7039 194.248 74.7039Z" fill="#152B1D" fill-opacity="0.670588"/>
<path d="M208.941 95.1296C208.081 95.1296 207.282 94.9871 206.546 94.7022C205.81 94.4172 205.17 94.0139 204.627 93.4927C204.084 92.9711 203.662 92.3558 203.361 91.6461C203.06 90.9366 202.91 90.1626 202.91 89.3239C202.91 88.4852 203.06 87.7112 203.361 87.0018C203.662 86.2923 204.086 85.6767 204.635 85.1555C205.183 84.6339 205.823 84.2306 206.554 83.9456C207.285 83.661 208.086 83.5186 208.957 83.5186C209.882 83.5186 210.725 83.6769 211.489 83.994C212.252 84.3115 212.897 84.7817 213.424 85.4053L212.069 86.6794C211.661 86.2383 211.204 85.908 210.698 85.6876C210.193 85.4669 209.645 85.3569 209.054 85.3569C208.462 85.3569 207.922 85.4537 207.433 85.6472C206.944 85.8407 206.519 86.1147 206.159 86.4696C205.799 86.8245 205.519 87.2437 205.321 87.7274C205.121 88.2112 205.022 88.7434 205.022 89.3239C205.022 89.9044 205.121 90.4366 205.321 90.9204C205.519 91.4042 205.799 91.8237 206.159 92.1782C206.519 92.5331 206.944 92.8071 207.433 93.001C207.922 93.1945 208.462 93.2913 209.054 93.2913C209.645 93.2913 210.193 93.1809 210.698 92.9606C211.204 92.7402 211.661 92.4042 212.069 91.9526L213.424 93.2429C212.897 93.8556 212.252 94.3231 211.489 94.6459C210.725 94.9683 209.876 95.1296 208.941 95.1296Z" fill="white"/>
<path d="M218.665 95.0812C217.783 95.0702 216.998 94.8767 216.311 94.5006C215.622 94.1242 215.08 93.6057 214.682 92.9442C214.284 92.2832 214.085 91.5224 214.085 90.6625C214.085 89.8023 214.287 89.0419 214.69 88.3805C215.093 87.7194 215.636 87.2005 216.319 86.8244C217.001 86.448 217.783 86.2598 218.665 86.2598C219.557 86.2598 220.348 86.448 221.035 86.8244C221.724 87.2005 222.266 87.7168 222.664 88.3725C223.062 89.0283 223.261 89.7917 223.261 90.6625C223.261 91.5118 223.065 92.2696 222.672 92.9363C222.28 93.6026 221.734 94.1242 221.035 94.5006C220.337 94.8767 219.547 95.0702 218.665 95.0812ZM218.665 93.3555C219.16 93.3555 219.6 93.2481 219.987 93.0331C220.374 92.818 220.678 92.5062 220.899 92.0976C221.119 91.6891 221.235 91.2106 221.245 90.6625C221.235 90.1032 221.119 89.6224 220.899 89.2191C220.678 88.8159 220.374 88.5067 219.987 88.2916C219.6 88.077 219.16 87.9692 218.665 87.9692C218.181 87.9692 217.748 88.077 217.367 88.2916C216.985 88.5067 216.681 88.8159 216.456 89.2191C216.23 89.6224 216.117 90.1032 216.117 90.6625C216.117 91.2106 216.23 91.6891 216.456 92.0976C216.681 92.5062 216.985 92.8206 217.367 93.041C217.748 93.2613 218.181 93.3664 218.665 93.3555Z" fill="white"/>
<path d="M227.841 95.1134C228.636 95.1134 229.343 95.0004 229.962 94.7747C230.58 94.5491 231.066 94.2346 231.421 93.8314C231.776 93.4281 231.953 92.9632 231.953 92.4363C231.953 91.7806 231.679 91.2617 231.131 90.8803C230.583 90.4986 229.83 90.3077 228.873 90.3077L228.808 90.7431C229.367 90.7431 229.865 90.6516 230.3 90.4691C230.736 90.2862 231.08 90.0307 231.332 89.703C231.585 89.3749 231.711 89.0068 231.711 88.5982C231.711 88.1039 231.534 87.6737 231.179 87.3083C230.824 86.9428 230.341 86.6631 229.728 86.4696C229.115 86.2761 228.416 86.1956 227.631 86.2277C227.115 86.2383 226.596 86.3108 226.075 86.4454C225.554 86.5799 225.019 86.7704 224.47 87.018L224.987 88.5015C225.459 88.2974 225.925 88.1413 226.382 88.0339C226.838 87.9262 227.282 87.8725 227.712 87.8725C228.121 87.8725 228.47 87.913 228.76 87.9935C229.05 88.074 229.273 88.1923 229.429 88.3484C229.585 88.5041 229.663 88.6844 229.663 88.8885C229.663 89.093 229.599 89.2702 229.469 89.4206C229.341 89.5711 229.155 89.6841 228.913 89.7593C228.671 89.8345 228.378 89.8723 228.034 89.8723H226.535V91.2269H228.196C228.744 91.2269 229.166 91.3157 229.462 91.493C229.757 91.6702 229.905 91.931 229.905 92.2749C229.905 92.5115 229.816 92.7213 229.639 92.9039C229.462 93.0868 229.212 93.224 228.889 93.3154C228.567 93.4065 228.18 93.4523 227.728 93.4523C227.201 93.4523 226.675 93.388 226.148 93.2588C225.621 93.1299 225.148 92.9469 224.728 92.7103L224.164 94.2104C224.68 94.5007 225.258 94.7237 225.898 94.8794C226.537 95.0355 227.185 95.1134 227.841 95.1134Z" fill="white"/>
<path d="M239.936 94.0328V88.066H236.63L236.581 89.4531C236.56 89.9475 236.527 90.4233 236.485 90.8803C236.442 91.3372 236.372 91.7564 236.275 92.1381C236.178 92.5198 236.038 92.8343 235.856 93.0815C235.673 93.3287 235.431 93.49 235.13 93.5653L233.13 93.2587C233.453 93.2587 233.713 93.154 233.912 92.9443C234.111 92.7345 234.267 92.4443 234.38 92.0735C234.493 91.7027 234.576 91.2779 234.63 90.7994C234.684 90.3213 234.721 89.8239 234.743 89.308L234.856 86.3566H241.951V94.0328H239.936ZM232.824 96.8871V93.2587H243.225V96.8871H241.339V94.9682H234.695V96.8871H232.824Z" fill="white"/>
<path d="M250.257 94.9682V93.2266L250.144 92.8554V89.8076C250.144 89.2165 249.967 88.7569 249.612 88.4288C249.257 88.1011 248.719 87.9371 247.999 87.9371C247.515 87.9371 247.039 88.0123 246.572 88.1628C246.104 88.3132 245.709 88.5229 245.387 88.7917L244.596 87.3241C245.059 86.9696 245.61 86.7035 246.249 86.5258C246.889 86.3486 247.553 86.2598 248.241 86.2598C249.488 86.2598 250.453 86.5583 251.136 87.1548C251.818 87.7515 252.16 88.6734 252.16 89.9206V94.9682H250.257ZM247.547 95.0812C246.903 95.0812 246.338 94.9708 245.854 94.7505C245.37 94.5301 244.997 94.2236 244.733 93.8313C244.47 93.439 244.338 92.9953 244.338 92.5009C244.338 92.0171 244.454 91.5817 244.685 91.1947C244.916 90.8077 245.295 90.5012 245.822 90.2755C246.349 90.0495 247.048 89.9369 247.918 89.9369H250.418V91.2752H248.064C247.375 91.2752 246.913 91.3856 246.677 91.6059C246.44 91.8263 246.322 92.0976 246.322 92.42C246.322 92.7859 246.467 93.0761 246.757 93.2912C247.048 93.5059 247.451 93.6136 247.967 93.6136C248.461 93.6136 248.905 93.5006 249.297 93.2749C249.69 93.0493 249.972 92.716 250.144 92.2749L250.483 93.4847C250.289 93.9897 249.942 94.3824 249.442 94.6617C248.942 94.9413 248.311 95.0812 247.547 95.0812Z" fill="white"/>
<path d="M254.675 94.9682L254.659 86.3566L256.659 86.3728L256.675 89.856L261.029 89.8885L261.013 86.3566L263.013 86.3728L263.029 94.9682H261.029L261.013 91.5655L256.659 91.5493L256.675 94.9682H254.675Z" fill="white"/>
<path d="M265.754 94.9682L265.738 86.3566L267.738 86.3728L267.754 92.033L272.511 86.3566L274.334 86.3728L274.35 94.9682H272.334V89.2917L267.593 94.9682H265.754Z" fill="white"/>
<path d="M281.074 95.0812C280.118 95.0812 279.282 94.8903 278.567 94.5086C277.852 94.1269 277.298 93.6026 276.906 92.9363C276.514 92.2696 276.317 91.5118 276.317 90.6625C276.317 89.8023 276.508 89.0419 276.89 88.3805C277.271 87.7194 277.798 87.2005 278.47 86.8244C279.142 86.448 279.908 86.2598 280.768 86.2598C281.607 86.2598 282.354 86.4427 283.01 86.8082C283.666 87.1737 284.182 87.6899 284.558 88.3563C284.934 89.023 285.122 89.8076 285.122 90.7109C285.122 90.7967 285.12 90.8935 285.114 91.0012C285.109 91.1085 285.101 91.2106 285.09 91.3073H277.914V89.969H284.026L283.236 90.3881C283.246 89.8938 283.144 89.4584 282.929 89.0819C282.714 88.7059 282.421 88.4099 282.05 88.1949C281.679 87.9802 281.252 87.8725 280.768 87.8725C280.274 87.8725 279.841 87.9802 279.47 88.1949C279.099 88.4099 278.809 88.7085 278.599 89.0902C278.389 89.4716 278.285 89.9206 278.285 90.4365V90.7593C278.285 91.2752 278.403 91.7321 278.64 92.1298C278.876 92.5277 279.209 92.8342 279.639 93.0493C280.069 93.264 280.564 93.3717 281.123 93.3717C281.607 93.3717 282.042 93.2965 282.429 93.1461C282.816 92.9953 283.16 92.7587 283.461 92.4363L284.542 93.6782C284.155 94.1295 283.668 94.4765 283.082 94.7184C282.496 94.9602 281.827 95.0812 281.074 95.0812Z" fill="white"/>
<path d="M291.782 94.9682V86.3566H300.039V94.9682H298.039V87.5985L298.507 88.066H293.331L293.798 87.5985V94.9682H291.782Z" fill="white"/>
<path d="M307.538 95.0812C306.839 95.0812 306.203 94.9198 305.627 94.5974C305.052 94.2746 304.595 93.7882 304.256 93.1377C303.918 92.4873 303.748 91.6622 303.748 90.6625C303.748 89.6519 303.912 88.8238 304.24 88.179C304.568 87.5338 305.017 87.0527 305.587 86.7356C306.157 86.4185 306.807 86.2598 307.538 86.2598C308.387 86.2598 309.137 86.4427 309.788 86.8082C310.438 87.1737 310.954 87.6843 311.336 88.34C311.718 88.9961 311.908 89.7702 311.908 90.6625C311.908 91.5549 311.718 92.3316 311.336 92.9926C310.954 93.654 310.438 94.1673 309.788 94.5328C309.137 94.8982 308.387 95.0812 307.538 95.0812ZM302.765 98.0969V86.3565H304.684V88.3884L304.619 90.6784L304.781 92.9684V98.0969H302.765ZM307.312 93.3555C307.796 93.3555 308.229 93.2481 308.61 93.0331C308.992 92.818 309.296 92.5062 309.522 92.0976C309.747 91.6891 309.86 91.2106 309.86 90.6625C309.86 90.1032 309.747 89.6224 309.522 89.2191C309.296 88.8159 308.992 88.5067 308.61 88.2916C308.229 88.077 307.796 87.9692 307.312 87.9692C306.828 87.9692 306.393 88.077 306.006 88.2916C305.619 88.5067 305.313 88.8159 305.087 89.2191C304.861 89.6224 304.748 90.1032 304.748 90.6625C304.748 91.2106 304.861 91.6891 305.087 92.0976C305.313 92.5062 305.619 92.818 306.006 93.0331C306.393 93.2481 306.828 93.3555 307.312 93.3555Z" fill="white"/>
<path d="M317.746 95.0812C316.865 95.0702 316.08 94.8767 315.392 94.5006C314.704 94.1242 314.161 93.6057 313.763 92.9442C313.365 92.2832 313.166 91.5224 313.166 90.6625C313.166 89.8023 313.368 89.0419 313.771 88.3805C314.174 87.7194 314.717 87.2005 315.4 86.8244C316.083 86.448 316.865 86.2598 317.746 86.2598C318.639 86.2598 319.429 86.448 320.117 86.8244C320.805 87.2005 321.348 87.7168 321.746 88.3725C322.143 89.0283 322.342 89.7917 322.342 90.6625C322.342 91.5118 322.146 92.2696 321.754 92.9363C321.361 93.6026 320.816 94.1242 320.117 94.5006C319.418 94.8767 318.628 95.0702 317.746 95.0812ZM317.746 93.3555C318.241 93.3555 318.682 93.2481 319.069 93.0331C319.456 92.818 319.759 92.5062 319.98 92.0976C320.2 91.6891 320.316 91.2106 320.327 90.6625C320.316 90.1032 320.2 89.6224 319.98 89.2191C319.759 88.8159 319.456 88.5067 319.069 88.2916C318.682 88.077 318.241 87.9692 317.746 87.9692C317.262 87.9692 316.83 88.077 316.448 88.2916C316.067 88.5067 315.763 88.8159 315.537 89.2191C315.311 89.6224 315.199 90.1032 315.199 90.6625C315.199 91.2106 315.311 91.6891 315.537 92.0976C315.763 92.5062 316.067 92.8206 316.448 93.041C316.83 93.2613 317.262 93.3664 317.746 93.3555Z" fill="white"/>
<path d="M329.793 95.1296C329.782 95.1296 329.737 95.1296 329.656 95.1296C329.576 95.1296 329.5 95.1296 329.43 95.1296C329.361 95.1296 329.315 95.1296 329.293 95.1296C327.476 95.108 326.068 94.7127 325.068 93.9443C324.068 93.1756 323.568 92.0761 323.568 90.6463C323.568 89.2271 324.068 88.1412 325.068 87.3887C326.068 86.6362 327.492 86.2492 329.342 86.2276C329.363 86.2276 329.409 86.2276 329.479 86.2276C329.548 86.2276 329.618 86.2276 329.688 86.2276C329.758 86.2276 329.799 86.2276 329.809 86.2276C331.669 86.2276 333.118 86.6067 334.155 87.3645C335.193 88.1223 335.712 89.2165 335.712 90.6463C335.712 92.087 335.193 93.1944 334.155 93.9685C333.118 94.7425 331.664 95.1296 329.793 95.1296ZM329.729 93.4522C330.643 93.4522 331.395 93.3475 331.986 93.1378C332.578 92.928 333.018 92.6166 333.309 92.2023C333.599 91.7885 333.744 91.2699 333.744 90.6463C333.744 90.0336 333.599 89.5257 333.309 89.1224C333.018 88.7191 332.578 88.4183 331.986 88.2191C331.395 88.0203 330.643 87.9209 329.729 87.9209C329.707 87.9209 329.656 87.9209 329.576 87.9209C329.495 87.9209 329.444 87.9209 329.422 87.9209C328.53 87.9209 327.799 88.0256 327.229 88.2353C326.659 88.4451 326.237 88.7486 325.963 89.1466C325.689 89.5442 325.552 90.0442 325.552 90.6463C325.552 91.259 325.689 91.7699 325.963 92.1781C326.237 92.5867 326.662 92.8985 327.237 93.1136C327.812 93.3286 328.541 93.4416 329.422 93.4522C329.444 93.4522 329.495 93.4522 329.576 93.4522C329.656 93.4522 329.707 93.4522 329.729 93.4522ZM328.68 98.0969V83.0022H330.583V98.0969H328.68Z" fill="white"/>
<path d="M337.679 94.9682L337.663 86.3566L339.662 86.3728L339.679 92.033L344.436 86.3566L346.258 86.3728L346.274 94.9682H344.258V89.2917L339.517 94.9682H337.679Z" fill="white"/>
<path d="M347.726 94.952L347.822 93.2587C347.898 93.2697 347.967 93.2803 348.032 93.2912C348.096 93.3018 348.156 93.3071 348.209 93.3071C348.543 93.3071 348.801 93.2051 348.983 93.001C349.166 92.7965 349.303 92.5198 349.395 92.1702C349.486 91.821 349.551 91.4283 349.588 90.9929C349.626 90.5575 349.655 90.1195 349.677 89.6788L349.822 86.3566H356.789V94.9682H354.773V87.5176L355.24 88.066H351.145L351.58 87.5018L351.467 89.7755C351.435 90.539 351.373 91.2458 351.281 91.8962C351.19 92.5467 351.05 93.1136 350.862 93.5974C350.674 94.0812 350.416 94.4576 350.088 94.7263C349.76 94.9951 349.344 95.1296 348.838 95.1296C348.677 95.1296 348.502 95.1133 348.314 95.0812C348.126 95.0487 347.93 95.006 347.726 94.952Z" fill="white"/>
<path d="M364.965 94.9682V92.033L365.255 92.3717H362.675C361.492 92.3717 360.565 92.1219 359.893 91.6218C359.221 91.1222 358.885 90.3991 358.885 89.4531C358.885 88.4425 359.243 87.6737 359.958 87.1469C360.673 86.62 361.627 86.3566 362.82 86.3566H366.771V94.9682H364.965ZM358.772 94.9682L361.094 91.6785H363.159L360.933 94.9682H358.772ZM364.965 91.3882V87.5176L365.255 88.0498H362.884C362.261 88.0498 361.78 88.1654 361.441 88.3968C361.103 88.6277 360.933 89.0015 360.933 89.5174C360.933 90.4849 361.562 90.9687 362.82 90.9687H365.255L364.965 91.3882Z" fill="white"/>
<path d="M204.053 115.052V107.586H207.157C207.946 107.586 208.567 107.748 209.018 108.071C209.47 108.395 209.695 108.869 209.695 109.495C209.695 110.114 209.479 110.581 209.045 110.897C208.611 111.214 208.042 111.372 207.338 111.372L207.519 111.106C208.352 111.106 208.984 111.269 209.418 111.596C209.852 111.923 210.069 112.403 210.069 113.036C210.069 113.676 209.843 114.172 209.391 114.524C208.94 114.876 208.262 115.052 207.36 115.052H204.053ZM204.832 114.423H207.36C207.993 114.423 208.472 114.305 208.8 114.071C209.126 113.836 209.29 113.473 209.29 112.983C209.29 112.499 209.126 112.144 208.8 111.916C208.472 111.688 207.993 111.575 207.36 111.575H204.832V114.423ZM204.832 110.967H207.114C207.69 110.967 208.133 110.851 208.442 110.62C208.752 110.389 208.906 110.046 208.906 109.591C208.906 109.136 208.752 108.793 208.442 108.562C208.133 108.331 207.69 108.215 207.114 108.215H204.832V110.967Z" fill="white"/>
<path d="M217.322 115.052V109.452H218.079V115.052H217.322ZM214.218 111.425C214.922 111.433 215.459 111.589 215.828 111.895C216.198 112.201 216.383 112.641 216.383 113.217C216.383 113.814 216.184 114.273 215.786 114.593C215.388 114.913 214.819 115.07 214.079 115.062L211.861 115.052V109.452H212.618V111.404L214.218 111.425ZM214.026 114.486C214.552 114.494 214.948 114.389 215.215 114.172C215.482 113.955 215.615 113.637 215.615 113.217C215.615 112.798 215.484 112.49 215.221 112.295C214.957 112.099 214.559 111.998 214.026 111.991L212.618 111.969V114.465L214.026 114.486Z" fill="white"/>
<path d="M225.375 115.105C224.82 115.105 224.324 114.983 223.887 114.737C223.449 114.492 223.106 114.154 222.858 113.724C222.608 113.294 222.484 112.802 222.484 112.247C222.484 111.685 222.608 111.191 222.858 110.764C223.106 110.338 223.449 110.004 223.887 109.762C224.324 109.52 224.82 109.399 225.375 109.399C225.851 109.399 226.281 109.491 226.665 109.676C227.049 109.861 227.351 110.138 227.572 110.508L227.006 110.892C226.814 110.608 226.576 110.398 226.292 110.263C226.007 110.128 225.698 110.06 225.364 110.06C224.966 110.06 224.607 110.151 224.287 110.332C223.967 110.513 223.714 110.768 223.53 111.095C223.344 111.422 223.252 111.806 223.252 112.247C223.252 112.688 223.344 113.071 223.53 113.399C223.714 113.726 223.967 113.98 224.287 114.161C224.607 114.342 224.966 114.433 225.364 114.433C225.698 114.433 226.007 114.366 226.292 114.231C226.576 114.096 226.814 113.889 227.006 113.612L227.572 113.996C227.351 114.359 227.049 114.634 226.665 114.822C226.281 115.011 225.851 115.105 225.375 115.105Z" fill="white"/>
<path d="M231.241 115.105C230.693 115.098 230.206 114.974 229.78 114.732C229.353 114.49 229.017 114.154 228.772 113.724C228.526 113.294 228.404 112.802 228.404 112.247C228.396 111.685 228.519 111.193 228.772 110.77C229.024 110.346 229.362 110.012 229.785 109.767C230.208 109.522 230.693 109.399 231.241 109.399C231.795 109.399 232.286 109.522 232.713 109.767C233.139 110.012 233.475 110.348 233.721 110.775C233.966 111.202 234.088 111.692 234.088 112.247C234.096 112.802 233.977 113.294 233.731 113.724C233.486 114.154 233.147 114.49 232.713 114.732C232.279 114.974 231.788 115.098 231.241 115.105ZM231.241 114.433C231.646 114.433 232.005 114.342 232.318 114.161C232.631 113.98 232.878 113.724 233.059 113.393C233.241 113.063 233.335 112.681 233.342 112.247C233.335 111.806 233.241 111.422 233.059 111.095C232.878 110.768 232.631 110.513 232.318 110.332C232.005 110.151 231.646 110.06 231.241 110.06C230.85 110.06 230.498 110.151 230.185 110.332C229.872 110.513 229.623 110.768 229.438 111.095C229.253 111.422 229.157 111.806 229.15 112.247C229.157 112.681 229.253 113.063 229.438 113.393C229.623 113.724 229.87 113.982 230.18 114.167C230.489 114.351 230.843 114.44 231.241 114.433Z" fill="white"/>
<path d="M237.182 115.116C237.644 115.116 238.061 115.045 238.435 114.903C238.808 114.761 239.105 114.563 239.325 114.311C239.546 114.058 239.656 113.765 239.656 113.431C239.656 113.004 239.476 112.666 239.117 112.418C238.758 112.169 238.259 112.044 237.619 112.044L237.587 112.247C237.95 112.247 238.273 112.19 238.558 112.076C238.842 111.963 239.069 111.802 239.24 111.596C239.411 111.39 239.496 111.148 239.496 110.871C239.496 110.558 239.39 110.29 239.176 110.066C238.963 109.842 238.677 109.669 238.318 109.548C237.959 109.428 237.555 109.374 237.107 109.388C236.78 109.388 236.455 109.433 236.131 109.522C235.808 109.611 235.482 109.74 235.155 109.911L235.369 110.498C235.66 110.348 235.955 110.236 236.254 110.162C236.552 110.087 236.84 110.046 237.118 110.039C237.423 110.039 237.697 110.075 237.939 110.146C238.181 110.217 238.371 110.323 238.51 110.465C238.648 110.608 238.718 110.778 238.718 110.978C238.718 111.162 238.659 111.322 238.541 111.458C238.424 111.593 238.259 111.696 238.046 111.767C237.832 111.838 237.587 111.873 237.31 111.873H236.403V112.428H237.363C237.832 112.428 238.202 112.512 238.472 112.679C238.743 112.846 238.877 113.079 238.877 113.377C238.877 113.584 238.806 113.768 238.664 113.932C238.522 114.096 238.323 114.223 238.067 114.316C237.811 114.408 237.509 114.458 237.16 114.465C236.812 114.465 236.46 114.414 236.104 114.311C235.749 114.208 235.436 114.056 235.166 113.857L234.921 114.423C235.226 114.657 235.578 114.832 235.976 114.945C236.375 115.059 236.776 115.116 237.182 115.116Z" fill="white"/>
<path d="M245.213 114.689V110.114H242.515L242.45 111.362C242.436 111.738 242.413 112.108 242.381 112.471C242.349 112.833 242.296 113.166 242.221 113.468C242.146 113.77 242.042 114.016 241.906 114.204C241.771 114.392 241.597 114.501 241.384 114.529L240.627 114.39C240.847 114.398 241.028 114.318 241.171 114.15C241.313 113.983 241.423 113.754 241.501 113.463C241.579 113.171 241.636 112.839 241.672 112.466C241.707 112.092 241.736 111.71 241.757 111.319L241.832 109.452H245.97V114.689H245.213ZM240.392 116.406V114.39H246.845V116.406H246.13V115.052H241.107V116.406H240.392Z" fill="white"/>
<path d="M251.794 115.052V113.814L251.762 113.612V111.543C251.762 111.066 251.628 110.7 251.362 110.444C251.095 110.188 250.699 110.06 250.173 110.06C249.81 110.06 249.465 110.121 249.138 110.242C248.811 110.363 248.533 110.522 248.306 110.722L247.965 110.156C248.249 109.914 248.59 109.728 248.988 109.596C249.387 109.465 249.806 109.399 250.247 109.399C250.972 109.399 251.532 109.578 251.927 109.938C252.322 110.297 252.519 110.843 252.519 111.575V115.052H251.794ZM249.863 115.105C249.444 115.105 249.079 115.036 248.77 114.897C248.46 114.759 248.224 114.567 248.061 114.321C247.897 114.076 247.815 113.793 247.815 113.473C247.815 113.182 247.884 112.917 248.023 112.679C248.162 112.441 248.389 112.249 248.706 112.103C249.022 111.957 249.447 111.884 249.981 111.884H251.911V112.449H250.002C249.461 112.449 249.086 112.545 248.877 112.737C248.667 112.929 248.562 113.167 248.562 113.452C248.562 113.772 248.687 114.028 248.935 114.22C249.184 114.412 249.532 114.508 249.981 114.508C250.407 114.508 250.775 114.41 251.084 114.215C251.394 114.019 251.619 113.737 251.762 113.367L251.932 113.889C251.79 114.259 251.543 114.554 251.191 114.774C250.839 114.995 250.396 115.105 249.863 115.105Z" fill="white"/>
<path d="M253.511 115.041L253.564 114.39C253.614 114.398 253.662 114.407 253.708 114.417C253.754 114.428 253.795 114.433 253.831 114.433C254.058 114.433 254.241 114.348 254.38 114.177C254.519 114.006 254.623 113.779 254.695 113.495C254.766 113.21 254.815 112.889 254.844 112.529C254.872 112.17 254.897 111.809 254.918 111.447L255.014 109.452H259.121V115.052H258.364V109.89L258.556 110.114H255.505L255.686 109.879L255.601 111.5C255.58 111.984 255.542 112.446 255.489 112.887C255.436 113.328 255.354 113.715 255.244 114.049C255.134 114.384 254.982 114.645 254.791 114.833C254.599 115.022 254.353 115.116 254.054 115.116C253.969 115.116 253.882 115.109 253.793 115.095C253.705 115.08 253.61 115.062 253.511 115.041Z" fill="white"/>
<path d="M261.286 115.052L261.275 109.452H262.033V113.9L265.776 109.452H266.448V115.052H265.702L265.691 110.594L261.958 115.052H261.286Z" fill="white"/>
<path d="M271.418 115.052L271.408 109.452H272.165V111.927H275.696V109.452H276.442L276.453 115.052H275.696V112.577H272.165V115.052H271.418Z" fill="white"/>
<path d="M280.911 115.105C280.364 115.098 279.877 114.974 279.45 114.732C279.024 114.49 278.688 114.154 278.442 113.724C278.197 113.294 278.074 112.802 278.074 112.247C278.067 111.685 278.19 111.193 278.442 110.77C278.695 110.346 279.032 110.012 279.456 109.767C279.879 109.522 280.364 109.399 280.911 109.399C281.466 109.399 281.956 109.522 282.383 109.767C282.81 110.012 283.146 110.348 283.391 110.775C283.636 111.202 283.759 111.692 283.759 112.247C283.766 112.802 283.647 113.294 283.402 113.724C283.156 114.154 282.817 114.49 282.383 114.732C281.949 114.974 281.459 115.098 280.911 115.105ZM280.911 114.433C281.317 114.433 281.676 114.342 281.989 114.161C282.302 113.98 282.549 113.724 282.73 113.393C282.911 113.063 283.005 112.681 283.012 112.247C283.005 111.806 282.911 111.422 282.73 111.095C282.549 110.768 282.302 110.513 281.989 110.332C281.676 110.151 281.317 110.06 280.911 110.06C280.52 110.06 280.168 110.151 279.855 110.332C279.543 110.513 279.294 110.768 279.109 111.095C278.924 111.422 278.828 111.806 278.821 112.247C278.828 112.681 278.924 113.063 279.109 113.393C279.294 113.724 279.541 113.982 279.85 114.167C280.159 114.351 280.513 114.44 280.911 114.433Z" fill="white"/>
<path d="M285.391 115.052V109.452H287.865C288.499 109.452 288.998 109.573 289.364 109.815C289.73 110.057 289.914 110.412 289.914 110.882C289.914 111.337 289.739 111.687 289.391 111.932C289.042 112.178 288.584 112.3 288.015 112.3L288.164 112.076C288.833 112.076 289.323 112.201 289.636 112.449C289.949 112.698 290.105 113.057 290.105 113.527C290.105 114.01 289.929 114.385 289.578 114.652C289.225 114.918 288.68 115.052 287.94 115.052H285.391ZM286.127 114.455H287.908C288.385 114.455 288.745 114.378 288.991 114.225C289.236 114.072 289.359 113.825 289.359 113.484C289.359 113.143 289.248 112.894 289.028 112.737C288.808 112.581 288.459 112.503 287.983 112.503H286.127V114.455ZM286.127 111.938H287.812C288.246 111.938 288.578 111.856 288.81 111.692C289.04 111.529 289.156 111.291 289.156 110.978C289.156 110.665 289.04 110.43 288.81 110.273C288.578 110.117 288.246 110.039 287.812 110.039H286.127V111.938Z" fill="white"/>
<path d="M297.337 115.052V109.452H298.094V115.052H297.337ZM294.233 111.425C294.937 111.433 295.474 111.589 295.844 111.895C296.213 112.201 296.398 112.641 296.398 113.217C296.398 113.814 296.199 114.273 295.801 114.593C295.403 114.913 294.834 115.07 294.094 115.062L291.876 115.052V109.452H292.633V111.404L294.233 111.425ZM294.041 114.486C294.567 114.494 294.964 114.389 295.23 114.172C295.497 113.955 295.63 113.637 295.63 113.217C295.63 112.798 295.499 112.49 295.236 112.295C294.972 112.099 294.574 111.998 294.041 111.991L292.633 111.969V114.465L294.041 114.486Z" fill="white"/>
<path d="M300.259 115.052L300.249 109.452H301.006V113.9L304.75 109.452H305.422V115.052H304.675L304.664 110.594L300.931 115.052H300.259ZM302.787 108.642C302.318 108.642 301.939 108.523 301.651 108.284C301.363 108.046 301.212 107.703 301.198 107.255H301.742C301.749 107.54 301.849 107.763 302.041 107.927C302.233 108.091 302.482 108.172 302.787 108.172C303.093 108.172 303.344 108.091 303.539 107.927C303.735 107.763 303.836 107.54 303.843 107.255H304.387C304.38 107.703 304.231 108.046 303.939 108.284C303.648 108.523 303.264 108.642 302.787 108.642Z" fill="white"/>
<path d="M310.381 115.052V109.452H315.416V115.052H314.658V109.911L314.85 110.114H310.947L311.139 109.911V115.052H310.381Z" fill="white"/>
<path d="M320.46 115.105C319.977 115.105 319.54 114.993 319.149 114.769C318.757 114.545 318.446 114.222 318.215 113.799C317.984 113.376 317.868 112.858 317.868 112.247C317.868 111.635 317.982 111.118 318.21 110.695C318.437 110.272 318.747 109.95 319.138 109.73C319.529 109.509 319.97 109.399 320.46 109.399C320.994 109.399 321.472 109.518 321.895 109.756C322.318 109.994 322.65 110.329 322.892 110.759C323.134 111.189 323.255 111.685 323.255 112.247C323.255 112.816 323.134 113.313 322.892 113.74C322.65 114.167 322.318 114.501 321.895 114.743C321.472 114.984 320.994 115.105 320.46 115.105ZM317.57 117.121V109.452H318.295V111.137L318.221 112.257L318.327 113.388V117.121H317.57ZM320.407 114.433C320.805 114.433 321.161 114.342 321.474 114.161C321.787 113.98 322.035 113.724 322.22 113.393C322.405 113.063 322.498 112.681 322.498 112.247C322.498 111.813 322.405 111.433 322.22 111.106C322.035 110.778 321.787 110.522 321.474 110.338C321.161 110.153 320.805 110.06 320.407 110.06C320.009 110.06 319.652 110.153 319.335 110.338C319.019 110.522 318.77 110.778 318.588 111.106C318.407 111.433 318.317 111.813 318.317 112.247C318.317 112.681 318.407 113.063 318.588 113.393C318.77 113.724 319.019 113.98 319.335 114.161C319.652 114.342 320.009 114.433 320.407 114.433Z" fill="white"/>
<path d="M327.191 115.105C326.643 115.098 326.156 114.974 325.729 114.732C325.303 114.49 324.967 114.154 324.721 113.724C324.476 113.294 324.353 112.802 324.353 112.247C324.346 111.685 324.469 111.193 324.721 110.77C324.974 110.346 325.311 110.012 325.735 109.767C326.158 109.522 326.643 109.399 327.191 109.399C327.745 109.399 328.236 109.522 328.662 109.767C329.089 110.012 329.425 110.348 329.67 110.775C329.916 111.202 330.038 111.692 330.038 112.247C330.045 112.802 329.926 113.294 329.681 113.724C329.436 114.154 329.096 114.49 328.662 114.732C328.228 114.974 327.738 115.098 327.191 115.105ZM327.191 114.433C327.596 114.433 327.955 114.342 328.268 114.161C328.581 113.98 328.828 113.724 329.009 113.393C329.19 113.063 329.284 112.681 329.292 112.247C329.284 111.806 329.19 111.422 329.009 111.095C328.828 110.768 328.581 110.513 328.268 110.332C327.955 110.151 327.596 110.06 327.191 110.06C326.799 110.06 326.448 110.151 326.135 110.332C325.822 110.513 325.573 110.768 325.388 111.095C325.203 111.422 325.107 111.806 325.1 112.247C325.107 112.681 325.203 113.063 325.388 113.393C325.573 113.724 325.82 113.982 326.129 114.167C326.438 114.351 326.792 114.44 327.191 114.433Z" fill="white"/>
<path d="M334.817 115.116C334.817 115.116 334.802 115.116 334.774 115.116C334.746 115.116 334.719 115.116 334.694 115.116C334.669 115.116 334.65 115.116 334.635 115.116C333.526 115.109 332.662 114.856 332.044 114.359C331.425 113.861 331.116 113.153 331.116 112.236C331.116 111.333 331.427 110.634 332.049 110.14C332.671 109.646 333.547 109.395 334.678 109.388C334.685 109.388 334.701 109.388 334.726 109.388C334.751 109.388 334.774 109.388 334.795 109.388C334.817 109.388 334.831 109.388 334.838 109.388C335.976 109.395 336.861 109.646 337.494 110.14C338.127 110.634 338.443 111.333 338.443 112.236C338.443 113.161 338.125 113.872 337.488 114.369C336.852 114.867 335.961 115.116 334.817 115.116ZM334.806 114.455C335.439 114.455 335.969 114.367 336.395 114.193C336.822 114.019 337.145 113.768 337.366 113.441C337.586 113.114 337.697 112.712 337.697 112.236C337.697 111.774 337.586 111.381 337.366 111.058C337.145 110.734 336.822 110.487 336.395 110.316C335.969 110.146 335.439 110.06 334.806 110.06C334.799 110.06 334.779 110.06 334.747 110.06C334.715 110.06 334.696 110.06 334.689 110.06C334.07 110.06 333.551 110.148 333.131 110.321C332.712 110.496 332.395 110.743 332.182 111.063C331.969 111.383 331.862 111.774 331.862 112.236C331.862 112.706 331.971 113.104 332.188 113.431C332.405 113.758 332.723 114.008 333.142 114.183C333.562 114.357 334.077 114.448 334.689 114.455C334.703 114.455 334.724 114.455 334.753 114.455C334.781 114.455 334.799 114.455 334.806 114.455ZM334.401 117.121V107.138H335.137V117.121H334.401Z" fill="white"/>
<path d="M340.054 115.052L340.043 109.452H340.8V113.9L344.544 109.452H345.216V115.052H344.47L344.459 110.594L340.726 115.052H340.054Z" fill="white"/>
<path d="M346.357 115.041L346.41 114.39C346.46 114.398 346.508 114.407 346.554 114.417C346.6 114.428 346.642 114.433 346.677 114.433C346.905 114.433 347.088 114.348 347.226 114.177C347.365 114.006 347.47 113.779 347.541 113.495C347.612 113.21 347.662 112.889 347.69 112.529C347.719 112.17 347.744 111.809 347.765 111.447L347.861 109.452H351.967V115.052H351.21V109.89L351.402 110.114H348.351L348.533 109.879L348.447 111.5C348.426 111.984 348.389 112.446 348.336 112.887C348.282 113.328 348.2 113.715 348.09 114.049C347.98 114.384 347.829 114.645 347.637 114.833C347.445 115.022 347.199 115.116 346.901 115.116C346.816 115.116 346.728 115.109 346.64 115.095C346.551 115.08 346.456 115.062 346.357 115.041Z" fill="white"/>
<path d="M356.532 111.425C357.236 111.433 357.771 111.589 358.137 111.895C358.504 112.201 358.687 112.641 358.687 113.217C358.687 113.814 358.489 114.273 358.095 114.593C357.7 114.913 357.129 115.07 356.383 115.062L354.122 115.052V109.452H354.879V111.404L356.532 111.425ZM356.34 114.486C356.859 114.494 357.252 114.389 357.519 114.172C357.786 113.955 357.919 113.637 357.919 113.217C357.919 112.798 357.787 112.49 357.524 112.295C357.261 112.099 356.866 111.998 356.34 111.991L354.879 111.969V114.465L356.34 114.486Z" fill="white"/>
<path d="M360.137 112.812L359.988 107.586H360.884L360.724 112.812H360.137ZM360.436 115.105C360.28 115.105 360.146 115.05 360.036 114.94C359.926 114.83 359.871 114.7 359.871 114.551C359.871 114.394 359.926 114.264 360.036 114.161C360.146 114.058 360.28 114.006 360.436 114.006C360.599 114.006 360.733 114.058 360.836 114.161C360.939 114.264 360.991 114.394 360.991 114.551C360.991 114.7 360.939 114.83 360.836 114.94C360.733 115.05 360.599 115.105 360.436 115.105Z" fill="white"/>
<defs>
<linearGradient id="paint0_linear_160_2" x1="290.839" y1="148.105" x2="209.144" y2="51.8873" gradientUnits="userSpaceOnUse">
<stop stop-color="#296648"/>
<stop offset="1" stop-color="#163D21"/>
</linearGradient>
<linearGradient id="paint1_linear_160_2" x1="126.041" y1="78.4116" x2="167.512" y2="121.243" gradientUnits="userSpaceOnUse">
<stop stop-color="#518249"/>
<stop offset="1" stop-color="#184D30"/>
</linearGradient>
</defs>
</svg>
